<svg xmlns="http://www.w3.org/2000/svg" shape-rendering="geometricPrecision" text-rendering="geometricPrecision" image-rendering="optimizeQuality" fill-rule="evenodd" clip-rule="evenodd" viewBox="0 0 500.003 511.613"><path fill="#fff" fill-rule="nonzero" d="M218.543 249.66l15.493-101.273a13.531 13.531 0 00-3.183-10.925c-4.92-5.644-13.499-6.243-19.143-1.323L4.637 316.525l-1.53 1.591c-4.765 5.757-3.959 14.316 1.799 19.081l207.073 171.341c2.987 2.408 6.956 3.587 11.029 2.863 7.338-1.312 12.227-8.351 10.915-15.69l-15.442-85.831c17.974-2.088 37.592-6.563 57.768-13.354 52.662-17.696 109.966-51.412 153.326-100.333 43.784-49.396 73.448-114.214 70.182-193.615-1.178-28.921-6.76-59.733-17.634-92.343-1.343-5.282-5.819-9.458-11.555-10.14-7.432-.879-14.181 4.445-15.06 11.876-11.928 100.085-50.523 158.112-98.244 191.797-42.658 30.119-93.191 41.355-138.721 45.892z"/></svg>